<!--
  - Copyright (c) 2022 Geetesh Gupta.
  -
  - Licensed under the Apache License, Version 2.0 (the "License");
  - you may not use this file except in compliance with the License.
  - You may obtain a copy of the License at
  -
  -     http://www.apache.org/licenses/LICENSE-2.0
  -
  - Unless required by applicable law or agreed to in writing, software
  - distributed under the License is distributed on an "AS IS" BASIS,
  - WITHOUT WARRANTIES OR CONDITIONS OF ANY KIND, either express or implied.
  - See the License for the specific language governing permissions and
  - limitations under the License.
  -->

<svg id="Layer_1" data-name="Layer 1" xmlns="http://www.w3.org/2000/svg" viewBox="0 0 13.35 13.84">
    <defs>
        <linearGradient id="linear-gradient" x1="4.39" y1="7.35" x2="12.07" y2="7.35" gradientUnits="userSpaceOnUse">
            <stop offset="0" stop-color="#cce0f4"/>
            <stop offset="0.04" stop-color="#c3dcf2"/>
            <stop offset="0.12" stop-color="#a9d2ee"/>
            <stop offset="0.21" stop-color="#80c2e7"/>
            <stop offset="0.32" stop-color="#47acde"/>
            <stop offset="0.39" stop-color="#1e9cd7"/>
            <stop offset="0.87" stop-color="#0075be"/>
            <stop offset="0.99" stop-color="#005b97"/>
        </linearGradient>
    </defs>
    <path d="M3.11,2H13.35V12.25H3.11Z" style="fill:none"/>
    <path d="M12.07,6.07V7.35c0,1.06-1.72,1.92-3.84,1.92S4.39,8.41,4.39,7.35V6.07C4.39,7.13,6.11,8,8.23,8S12.07,7.13,12.07,6.07ZM4.39,8.2c0,1.06,1.72,1.92,3.84,1.92s3.84-.86,3.84-1.92V9.48c0,1.06-1.72,1.92-3.84,1.92s-3.84-.86-3.84-1.92ZM8.23,7.14c-2.12,0-3.84-.86-3.84-1.92S6.11,3.3,8.23,3.3s3.84.86,3.84,1.92S10.35,7.14,8.23,7.14Z"
          style="fill:url(#linear-gradient)"/>
    <g id="mongodb-leaf">
        <path id="mongodb-leaf-stem"
              d="M3.41,13.84l-.36-.12s0-1.88-.63-2c-.45-.52.07-22.11,1.69-.07a1.32,1.32,0,0,0-.66.76,6.82,6.82,0,0,0,0,1.45Z"
              style="fill:#a6a385"/>
        <path id="mongodb-leaf-right"
              d="M3.48,12.26A6.1,6.1,0,0,0,6,5.49,9.17,9.17,0,0,0,3.39.83,5,5,0,0,1,3,0L3.12,9s-.36,3,.35,3.29"
              style="fill:#499d4a"/>
        <path id="mongodb-leaf-left"
              d="M2.86,12.14A7,7,0,0,1,0,6.44,7.72,7.72,0,0,1,2.73.68.83.83,0,0,0,3,0c.19.4.15,6.05.18,6.71a22,22,0,0,1-.35,5.43Z"
              style="fill:#58aa50"/>
    </g>
</svg>